<svg xmlns="http://www.w3.org/2000/svg" width="1200" height="360" viewBox="0 0 1200 360" role="img" aria-labelledby="title desc">
<title id="title">Nuvio — Your games. Your next adventure.</title><desc id="desc">Nuvio Orbit mark on a midnight background with lavender orbit lines.</desc>
<defs><linearGradient id="bg" x2="1" y2="1"><stop stop-color="#171927"/><stop offset="1" stop-color="#29234b"/></linearGradient></defs>
<rect width="1200" height="360" rx="24" fill="url(#bg)"/>
<g fill="none" stroke="#B49BFA" stroke-opacity=".16"><ellipse cx="1050" cy="120" rx="300" ry="230"/><ellipse cx="1050" cy="120" rx="235" ry="175"/><ellipse cx="1050" cy="120" rx="170" ry="120"/></g>
<circle cx="1004" cy="233" r="9" fill="#8AE7CE"/>
<g transform="translate(72 85) scale(1.7)"><path fill="#B49BFA" d="M69,14C46,3 19,16 11,41C0,73 21,93 50,87C69,83 83,70 90,55C78,71 58,79 40,70C19,60 24,34 42,22C51,16 61,12 69,14Z"/><path fill="#ECE4FF" d="M69,14C48,7 26,19 20,39C14,57 23,71 40,74C25,65 24,50 31,37C38,23 53,12 69,14Z"/><path fill="#E4DAFF" d="M78,43A18,18 0,1 1,42,43A18,18 0,1 1,78,43Z"/><path fill="#B49BFA" d="M88,36C93,43 92,48 87,53C90,47 90,42 88,36Z"/></g>
<g font-family="Segoe UI,Arial,sans-serif"><text x="282" y="155" fill="#F2EDFF" font-size="76" font-weight="700">Nuvio</text><text x="285" y="207" fill="#DCD4EF" font-size="28">Your games. Your next adventure.</text><text x="285" y="251" fill="#AFA6C8" font-size="18">REN’PY · RPG MAKER · WINDOWS / UNITY</text></g></svg>